<svg width="16" height="14" viewBox="0 0 16 14" fill="none" xmlns="http://www.w3.org/2000/svg">
<path d="M13.333 0H2.667C1.96032 0.00184652 1.28318 0.248303 0.783477 0.685543C0.283775 1.12278 0.0021103 1.71528 0 2.33363L0 11.6664C0 12.9509 1.2 14 2.667 14H13.333C14.0398 13.9984 14.7171 13.752 15.2168 13.3147C15.7166 12.8774 15.9982 12.2848 16 11.6664V2.33363C16 1.05 14.8 0 13.333 0ZM3.32864 11.5153C3.07085 11.8449 2.58907 11.8904 2.27412 11.6149C1.94212 11.3244 1.94212 10.8079 2.27412 10.5174L5.42744 7.75824C5.55315 7.64824 5.74085 7.64824 5.86656 7.75824C5.99976 7.87479 6.01868 8.07511 5.90965 8.21454L3.32864 11.5153ZM2.39573 2.716C2.3959 2.716 2.39607 2.71594 2.39621 2.71582L2.54375 2.58672C2.72521 2.42794 2.99178 2.41396 3.18886 2.55289L7.42282 5.53769C7.76833 5.78126 8.22967 5.78126 8.57518 5.53769L12.9328 2.46575C13.0573 2.37795 13.2258 2.38679 13.3404 2.48713C13.4827 2.61159 13.4916 2.82982 13.36 2.9655L8.71586 7.75428C8.32301 8.15937 7.67299 8.15937 7.28014 7.75428L2.3952 2.71724C2.39475 2.71678 2.39508 2.716 2.39573 2.716ZM13.7259 11.6149C13.4109 11.8904 12.9292 11.8449 12.6714 11.5153L10.0903 8.21454C9.98132 8.07511 10.0002 7.87479 10.1334 7.75824C10.2591 7.64824 10.4468 7.64824 10.5726 7.75824L13.7259 10.5174C14.0579 10.8079 14.0579 11.3244 13.7259 11.6149Z" fill="#BB6868"/>
</svg>
